<svg  data-name="Слой 1" xmlns="http://www.w3.org/2000/svg" viewBox="0 0 40 40"><title>Enter_Key</title><path d="M6,37.5A3.5,3.5,0,0,1,2.5,34V18A3.5,3.5,0,0,1,6,14.5h9.5V6A3.5,3.5,0,0,1,19,2.5H34A3.5,3.5,0,0,1,37.5,6V34A3.5,3.5,0,0,1,34,37.5Z" fill="#b0c1d4"/><path d="M34,3a3,3,0,0,1,3,3V34a3,3,0,0,1-3,3H6a3,3,0,0,1-3-3V18a3,3,0,0,1,3-3H16V6a3,3,0,0,1,3-3H34m0-1H19a4,4,0,0,0-4,4v8H6a4,4,0,0,0-4,4V34a4,4,0,0,0,4,4H34a4,4,0,0,0,4-4V6a4,4,0,0,0-4-4Z" fill="#66798f"/><path d="M34,3H19a3,3,0,0,0-3,3v9H6a3,3,0,0,0-3,3V31a3,3,0,0,0,3,3H34a3,3,0,0,0,3-3V6A3,3,0,0,0,34,3Z" fill="#d8e2ed"/><polygon points="26 10 26 23 15 23 15 18 8.5 24.5 15 31 15 26 29 26 29 10 26 10" fill="#36404d"/></svg>